<?xml version="1.0" standalone="no"?><!-- Generator: Gravit.io --><svg xmlns="http://www.w3.org/2000/svg" xmlns:xlink="http://www.w3.org/1999/xlink" style="isolation:isolate" viewBox="0 0 595.276 385.512" width="595.276" height="385.512"><defs><clipPath id="_clipPath_Wnik8MsSgtAHpajZ68wBKnTZVl5paGPi"><rect width="595.276" height="385.512"/></clipPath></defs><g clip-path="url(#_clipPath_Wnik8MsSgtAHpajZ68wBKnTZVl5paGPi)"><path d=" M 238.885 59.576 L 102.141 59.576 L 60.29 101.441 L 60.29 285.617 L 102.156 327.468 L 238.885 327.468 L 238.885 59.576 L 238.885 59.576 Z  M 271.434 0.044 C 286.778 1.485 298.484 14.399 298.417 29.81 L 298.417 357.234 C 298.417 373.673 285.09 387 268.651 387 L 90.056 387 C 82.188 386.929 74.666 383.751 69.13 378.16 L 9.599 318.628 C 4.018 313.121 0.818 305.546 0.758 297.702 L 0.758 89.341 C 0.829 81.473 4.007 73.952 9.599 68.416 L 69.13 8.884 C 74.666 3.293 82.188 0.115 90.056 0.044 L 268.651 0.044 C 269.583 -0.015 270.517 -0.015 271.449 0.044 L 271.434 0.044 L 271.434 0.044 Z  M 357.789 59.936 L 479.323 59.936 L 506.218 86.846 L 506.218 124.873 L 490.44 148.993 L 357.789 148.993 L 357.789 59.936 L 357.789 59.936 Z  M 357.789 208.365 L 496.481 208.365 L 535.904 238.051 L 535.904 300.213 L 508.994 327.108 L 357.789 327.108 L 357.789 208.365 L 357.789 208.365 Z  M 325.328 0.564 C 310.025 2.001 298.35 14.88 298.417 30.25 L 298.417 356.794 C 298.417 373.189 311.708 386.48 328.103 386.48 L 521.061 386.48 C 528.908 386.409 536.409 383.24 541.93 377.663 L 586.459 333.134 C 592.025 327.642 595.216 320.087 595.276 312.265 L 595.276 223.208 C 595.212 213.859 590.738 205.089 583.208 199.548 L 546.576 172.178 L 560.484 150.848 C 563.853 145.921 565.59 140.117 565.59 134.15 L 565.59 74.779 C 565.519 66.932 562.35 59.43 556.773 53.909 L 512.244 9.381 C 506.723 3.804 499.222 0.635 491.375 0.564 L 328.103 0.564 C 327.174 0.506 326.242 0.506 325.313 0.564 L 325.328 0.564 L 325.328 0.564 Z " fill-rule="evenodd" fill="rgb(0,204,255)"/></g></svg>